<?xml version="1.0" encoding="UTF-8"?>
<svg id="Layer_1" xmlns="http://www.w3.org/2000/svg" version="1.1" viewBox="0 0 27 51">
  <!-- Generator: Adobe Illustrator 29.7.1, SVG Export Plug-In . SVG Version: 2.1.1 Build 8)  -->
  <defs>
    <style>
      .st0 {
        fill: #cf163e;
      }
    </style>
  </defs>
  <path class="st0" d="M26.5,13.2c-1.3-2.1-2.7-4.2-4-6.3-.7-1.1-1.4-2.2-2.1-3.2l-.3-.4c-1.3-1.9-3.8-3.1-6.3-1.9-2.2,1.1-3.2,3.6-2,5.6.4.8,1.1,1.5,1.8,2.1,2,2,4.1,4,6.1,6.1,3,3.1,1.9,8-2.2,9.6h-.1v-9.5c-3.6,1.8-6.7,4.1-9.4,6.9-4.2,4.4-6.6,9.9-7.4,13.9,2.3-1.1,4.5-2.2,6.8-3.3,2.3-1.1,4.5-2.2,6.8-3.3v18.4l3.1,3v-22.9s0,0,.3-.1c.9-.5,1.9-.9,2.7-1.4,4.7-3.1,5.3-9.4,1.4-13.3-2.3-2.3-4.6-4.6-7-6.9-.7-.7-.7-1.5,0-2.1.6-.6,1.6-.5,2.2.1.3.3,2.5,2.5,3.3,3.3,2,1.9,3.9,3.9,5.9,5.8.1,0,.2.2.3.3,0,0,0,0,.1,0,0-.1,0-.3-.1-.4h0ZM14.3,26.2c0,.1-.2.3-.3.4-1.2.6-2.5,1.2-3.7,1.8-1.5.7-3,1.4-4.6,2.2,2.1-4,4.9-7.3,8.5-10.1h0c0,1.8,0,3.8,0,5.6h0Z"/>
</svg>